# xmcd CD database file
#
# Track frame offsets:
#	150
#	21902
#	50093
#	82793
#	104586
#	116589
#	145769
#	167882
#	171283
#	204992
#
# Disc length: 3155 seconds
#
# Revision: 0
# Processed by: cddbd v1.5.2PL0 Copyright (c) Steve Scherf et al.
# Submitted via: CDex 1.51
#
DISCID=850c510a
DTITLE=X'Tet Bruno Regnier - A suivre
DYEAR=2003
DGENRE=Jazz
TTITLE0=Ecco, no muder !
TTITLE1=E.W.L.
TTITLE2=Hop(e)'n'ouane
TTITLE3=Cendres
TTITLE4=Pitchounes
TTITLE5=Ecco uno
TTITLE6=En attendant l'ecco
TTITLE7=Parcours
TTITLE8=Turb's
TTITLE9=Cèdres
EXTD=YEAR: 2003
EXTT0=
EXTT1=
EXTT2=
EXTT3=
EXTT4=
EXTT5=
EXTT6=
EXTT7=
EXTT8=
EXTT9=
PLAYORDER=
